<svg width="20" height="20" viewBox="0 0 20 20" fill="none" xmlns="http://www.w3.org/2000/svg">
<path fill-rule="evenodd" clip-rule="evenodd" d="M15.6214 6.15385L14.5882 1.74615C14.3463 0.719695 13.4796 -6.06116e-05 12.4855 3.82832e-09H7.51445C6.52041 -6.06116e-05 5.65373 0.719695 5.41185 1.74615L4.37861 6.15385H0L2.8396 18.2538C3.08148 19.2803 3.94816 20.0001 4.9422 20H15.0578C16.0518 20.0001 16.9185 19.2803 17.1604 18.2538L20 6.15385H15.6214ZM9.27746 13.8462V18.4615H7.70954L6.89306 13.8462H9.27746ZM6.62572 12.3077L5.80925 7.69231H9.27746V12.3077H6.62572ZM10.7225 13.8462H13.1069L12.2905 18.4615H10.7225V13.8462ZM10.7225 12.3077V7.69231H14.1908L13.3743 12.3077H10.7225ZM15.6575 7.69231H18.1503L17.0665 12.3077H14.841L15.6575 7.69231ZM6.81358 2.12308C6.8951 1.7714 7.19603 1.52791 7.53613 1.53846H12.5072C12.8473 1.52791 13.1483 1.7714 13.2298 2.12308L14.1329 6.15385H5.86705L6.81358 2.12308ZM4.34249 7.69231L5.15896 12.3077H2.93353L1.84971 7.69231H4.34249ZM4.21965 17.8769L3.2948 13.8462H5.46243L6.27168 18.4615H4.9422C4.6021 18.4721 4.30117 18.2286 4.21965 17.8769ZM15.737 17.8769C15.6594 18.2119 15.3817 18.4509 15.0578 18.4615H13.7645L14.5737 13.8462H16.7413L15.737 17.8769Z" fill="white"/>
</svg>
