<svg width="24" height="24" viewBox="0 0 24 24" fill="none" xmlns="http://www.w3.org/2000/svg">
<path fill-rule="evenodd" clip-rule="evenodd" d="M21.8401 4.53747L19.5001 2.15997C18.6216 1.28261 17.1985 1.28261 16.3201 2.15997L4.71756 13.7175C4.47241 13.9674 4.2877 14.2701 4.17756 14.6025L1.56006 22.44L9.40506 19.8225C9.73373 19.7092 10.0333 19.5248 10.2826 19.2825L21.8401 7.71747C22.7174 6.83902 22.7174 5.41593 21.8401 4.53747ZM6.09006 14.4975L12.6526 7.94247L13.8376 9.12747L7.25256 15.69L6.09006 14.4975ZM13.6801 6.87747L14.8726 5.69247L18.3076 9.12747L17.1226 10.32L13.6801 6.87747ZM5.32506 15.8925L8.11506 18.675L3.93756 20.0625L5.32506 15.8925ZM9.50256 17.94L8.31006 16.7475L14.8726 10.1925L16.0576 11.3775L9.50256 17.94ZM20.7526 6.68997L19.3426 8.09997L15.9301 4.62747L17.3401 3.21747C17.4816 3.07708 17.6732 2.99882 17.8726 2.99997C18.0719 2.99882 18.2635 3.07708 18.4051 3.21747L20.7826 5.60247C20.9211 5.74217 20.9992 5.93072 21.0001 6.12747C21.0012 6.32683 20.9229 6.51843 20.7826 6.65997L20.7526 6.68997Z" fill="#252C32"/>
</svg>
