<svg width="24" height="24" viewBox="0 0 24 24" fill="none" xmlns="http://www.w3.org/2000/svg">
<path fill-rule="evenodd" clip-rule="evenodd" d="M7.87587 17.7142C9.0928 17.7142 10.0793 18.6736 10.0793 19.8571C10.0793 21.0406 9.0928 21.9999 7.87587 21.9999C6.65894 21.9999 5.67242 21.0406 5.67242 19.8571C5.67242 18.6736 6.65894 17.7142 7.87587 17.7142ZM7.87587 20.5714C8.28152 20.5714 8.61036 20.2516 8.61036 19.8571C8.61036 19.4626 8.28152 19.1428 7.87587 19.1428C7.47023 19.1428 7.14139 19.4626 7.14139 19.8571C7.14139 20.2516 7.47023 20.5714 7.87587 20.5714ZM16.6897 17.7142C17.9066 17.7142 18.8931 18.6736 18.8931 19.8571C18.8931 20.7238 18.3563 21.5051 17.5329 21.8368C16.7095 22.1685 15.7618 21.9852 15.1316 21.3723C14.5014 20.7595 14.3129 19.8378 14.654 19.0371C14.995 18.2363 15.7985 17.7142 16.6897 17.7142ZM16.6897 20.5714C17.0953 20.5714 17.4242 20.2516 17.4242 19.8571C17.4242 19.4626 17.0953 19.1428 16.6897 19.1428C16.284 19.1428 15.9552 19.4626 15.9552 19.8571C15.9552 20.2516 16.284 20.5714 16.6897 20.5714ZM5.51083 4.85713H22L20.531 10.6143C20.3295 11.3929 19.6973 11.9967 18.8931 12.1785L8.01542 14.6714L8.10356 15.0285C8.18642 15.3551 8.49233 15.5812 8.83805 15.5714H18.8931V17H8.83805C7.81938 17.0099 6.9265 16.3395 6.67866 15.3785L6.4069 14.3142L3.79214 3.97142C3.70928 3.64486 3.40338 3.41877 3.05766 3.42857H2V2H3.05766C4.06812 1.99994 4.94913 2.66829 5.19501 3.62142L5.51083 4.85713ZM19.1355 10.2714L20.1564 6.2857H5.87808L7.67756 13.2857L18.5846 10.7928C18.8546 10.7338 19.0675 10.5322 19.1355 10.2714Z" fill="white"/>
</svg>
