<svg width="20" height="20" viewBox="0 0 20 20" fill="none" xmlns="http://www.w3.org/2000/svg">
<path d="M9.99992 0.833313C4.93742 0.833313 0.833252 4.93727 0.833252 9.99998C0.833252 15.0627 4.93742 19.1666 9.99992 19.1666C15.0624 19.1666 19.1666 15.0627 19.1666 9.99998C19.1666 4.93727 15.0624 0.833313 9.99992 0.833313ZM9.99992 17.5C5.85783 17.5 2.49992 14.1421 2.49992 9.99998C2.49992 5.8579 5.85783 2.49998 9.99992 2.49998C14.142 2.49998 17.4999 5.8579 17.4999 9.99998C17.4999 14.1421 14.142 17.5 9.99992 17.5Z" fill="#26D093"/>
<path d="M13.3924 7.74378C13.067 7.41858 12.5393 7.41858 12.2139 7.74378L9.26765 10.6902L8.08911 9.5117C7.76369 9.18628 7.23619 9.18628 6.91057 9.5117C6.58515 9.83712 6.58515 10.3648 6.91057 10.6905L8.67807 12.4577C9.00348 12.7832 9.5314 12.7832 9.85682 12.4577L13.3922 8.92233C13.7179 8.59691 13.7183 8.06941 13.3924 7.74378Z" fill="#26D093"/>
</svg>
