<svg width="24" height="24" viewBox="0 0 24 24" fill="none" xmlns="http://www.w3.org/2000/svg">
<path fill-rule="evenodd" clip-rule="evenodd" d="M17.8351 8.25L16.7626 3.9525C16.5115 2.9517 15.6119 2.24994 14.5801 2.25H9.42012C8.38831 2.24994 7.48869 2.9517 7.23762 3.9525L6.16512 8.25H1.62012L4.56762 20.0475C4.81869 21.0483 5.71831 21.7501 6.75012 21.75H17.2501C18.2819 21.7501 19.1815 21.0483 19.4326 20.0475L22.3801 8.25H17.8351ZM11.2501 15.75V20.25H9.62262L8.77512 15.75H11.2501ZM8.49762 14.25L7.65012 9.75H11.2501V14.25H8.49762ZM12.7501 15.75H15.2251L14.3776 20.25H12.7501V15.75ZM12.7501 14.25V9.75H16.3501L15.5026 14.25H12.7501ZM17.8726 9.75H20.4601L19.3351 14.25H17.0251L17.8726 9.75ZM8.69262 4.32C8.77723 3.97711 9.08959 3.73971 9.44262 3.75H14.6026C14.9556 3.73971 15.268 3.97711 15.3526 4.32L16.2901 8.25H7.71012L8.69262 4.32ZM6.12762 9.75L6.97512 14.25H4.66512L3.54012 9.75H6.12762ZM6.00012 19.68L5.04012 15.75H7.29012L8.13012 20.25H6.75012C6.39709 20.2603 6.08473 20.0229 6.00012 19.68ZM17.9551 19.68C17.8745 20.0066 17.5864 20.2396 17.2501 20.25H15.9076L16.7476 15.75H18.9976L17.9551 19.68Z" fill="#252C32"/>
</svg>
