<svg width="25" height="24" viewBox="0 0 25 24" fill="none" xmlns="http://www.w3.org/2000/svg">
<path d="M12.5476 0C5.92361 0 0.547607 5.376 0.547607 12C0.547607 14.544 1.33961 16.896 2.68361 18.84L1.43561 23.232L5.97161 22.032C7.86761 23.28 10.1236 24 12.5476 24C19.1716 24 24.5476 18.624 24.5476 12C24.5476 5.376 19.1716 0 12.5476 0ZM19.8436 15.864C19.4596 18.36 17.1316 19.272 15.1156 18.672C10.8676 17.424 7.79561 14.736 5.77961 10.824C5.27561 9.864 5.10761 8.784 5.32361 7.68C5.51561 6.696 6.11561 5.952 6.85961 5.328C7.14761 5.088 7.48361 5.016 7.91561 5.04C8.56361 5.016 8.89961 5.232 9.13961 6.048C9.37961 6.888 9.81161 7.656 10.1716 8.472C10.3156 8.832 10.2916 9.12 10.0276 9.384C9.71561 9.72 9.40361 10.104 9.09161 10.44C8.89961 10.656 8.87561 10.848 9.01961 11.112C10.1956 13.2 11.9236 14.616 14.1556 15.456C14.4196 15.552 14.5636 15.432 14.7076 15.264C15.0436 14.808 15.4036 14.376 15.7396 13.92C15.9796 13.56 16.2676 13.512 16.6516 13.704C17.5636 14.136 18.4996 14.568 19.4356 15C19.8676 15.216 19.9156 15.36 19.8436 15.864Z" fill="white"/>
</svg>
